<svg xmlns="http://www.w3.org/2000/svg" width="20" height="20" viewBox="0 0 20 20" fill="none">
<path d="M18.2929 0.292893C18.6834 -0.0976306 19.3164 -0.0976306 19.707 0.292893C20.0975 0.683417 20.0975 1.31643 19.707 1.70696L11.414 9.99992L19.707 18.2929C20.0975 18.6834 20.0975 19.3164 19.707 19.707C19.3164 20.0975 18.6834 20.0975 18.2929 19.707L9.99992 11.414L1.70696 19.707C1.31643 20.0975 0.683417 20.0975 0.292893 19.707C-0.0976306 19.3164 -0.0976306 18.6834 0.292893 18.2929L8.58586 9.99992L0.292893 1.70696C-0.0976311 1.31643 -0.0976311 0.683417 0.292893 0.292893C0.683417 -0.0976311 1.31643 -0.0976311 1.70696 0.292893L9.99992 8.58586L18.2929 0.292893Z" fill="white"/>
</svg>