<svg width="14" height="14" viewBox="0 0 14 14" fill="none" xmlns="http://www.w3.org/2000/svg">
<g filter="url(#filter0_i_2029_128)">
<path d="M4 0H1C0.45 0 0 0.45 0 1V13C0 13.55 0.45 14 1 14H4C4.55 14 5 13.55 5 13V1C5 0.45 4.55 0 4 0ZM13 0H10C9.45 0 9 0.45 9 1V13C9 13.55 9.45 14 10 14H13C13.55 14 14 13.55 14 13V1C14 0.45 13.55 0 13 0Z" fill="white"/>
</g>
<defs>
<filter id="filter0_i_2029_128" x="0" y="0" width="14" height="20" filterUnits="userSpaceOnUse" color-interpolation-filters="sRGB">
<feFlood flood-opacity="0" result="BackgroundImageFix"/>
<feBlend mode="normal" in="SourceGraphic" in2="BackgroundImageFix" result="shape"/>
<feColorMatrix in="SourceAlpha" type="matrix" values="0 0 0 0 0 0 0 0 0 0 0 0 0 0 0 0 0 0 127 0" result="hardAlpha"/>
<feOffset dy="8"/>
<feGaussianBlur stdDeviation="3"/>
<feComposite in2="hardAlpha" operator="arithmetic" k2="-1" k3="1"/>
<feColorMatrix type="matrix" values="0 0 0 0 0 0 0 0 0 0 0 0 0 0 0 0 0 0 0.45 0"/>
<feBlend mode="multiply" in2="shape" result="effect1_innerShadow_2029_128"/>
</filter>
</defs>
</svg>
