<svg aria-hidden="true" xmlns="http://www.w3.org/2000/svg" xmlns:xlink="http://www.w3.org/1999/xlink"><symbol viewBox="0 0 13 13" fill="none" id="icon-arrow-down" xmlns="http://www.w3.org/2000/svg">
<path d="M5.85643 9.93855L0.266815 4.34875C-0.0889358 3.99317 -0.0889358 3.41666 0.266815 3.06125C0.62225 2.70582 1.19873 2.70582 1.55414 3.06125L6.50009 8.00737L11.4459 3.0614C11.8015 2.70596 12.3779 2.70596 12.7333 3.0614C13.0889 3.41683 13.0889 3.99331 12.7333 4.34889L7.14361 9.9387C6.96581 10.1164 6.73302 10.2052 6.50012 10.2052C6.26711 10.2052 6.03415 10.1162 5.85643 9.93855Z" fill="currentColor"/>
</symbol><symbol viewBox="0 0 20 20" fill="none" id="icon-close" xmlns="http://www.w3.org/2000/svg">
<path d="M18.2929 0.292893C18.6834 -0.0976306 19.3164 -0.0976306 19.707 0.292893C20.0975 0.683417 20.0975 1.31643 19.707 1.70696L11.414 9.99992L19.707 18.2929C20.0975 18.6834 20.0975 19.3164 19.707 19.707C19.3164 20.0975 18.6834 20.0975 18.2929 19.707L9.99992 11.414L1.70696 19.707C1.31643 20.0975 0.683417 20.0975 0.292893 19.707C-0.0976306 19.3164 -0.0976306 18.6834 0.292893 18.2929L8.58586 9.99992L0.292893 1.70696C-0.0976311 1.31643 -0.0976311 0.683417 0.292893 0.292893C0.683417 -0.0976311 1.31643 -0.0976311 1.70696 0.292893L9.99992 8.58586L18.2929 0.292893Z" fill="currentColor"/>
</symbol><symbol id="icon-next" viewBox="0 0 492.004 492.004" xml:space="preserve" xmlns="http://www.w3.org/2000/svg">
	<g>
		<path fill="currentColor" d="M382.678,226.804L163.73,7.86C158.666,2.792,151.906,0,144.698,0s-13.968,2.792-19.032,7.86l-16.124,16.12    c-10.492,10.504-10.492,27.576,0,38.064L293.398,245.9l-184.06,184.06c-5.064,5.068-7.86,11.824-7.86,19.028    c0,7.212,2.796,13.968,7.86,19.04l16.124,16.116c5.068,5.068,11.824,7.86,19.032,7.86s13.968-2.792,19.032-7.86L382.678,265    c5.076-5.084,7.864-11.872,7.848-19.088C390.542,238.668,387.754,231.884,382.678,226.804z"/>
	</g>
</symbol><symbol viewBox="0 0 20 20" id="icon-pause" xmlns="http://www.w3.org/2000/svg">
  <path d="M7 3H4c-.55 0-1 .45-1 1v12c0 .55.45 1 1 1h3c.55 0 1-.45 1-1V4c0-.55-.45-1-1-1m9 0h-3c-.55 0-1 .45-1 1v12c0 .55.45 1 1 1h3c.55 0 1-.45 1-1V4c0-.55-.45-1-1-1" fill="currentColor"/>
</symbol><symbol viewBox="0 0 8 9" fill="none" id="icon-play" xmlns="http://www.w3.org/2000/svg">
<path d="M7.03125 4.0625L0 8.125V0L7.03125 4.0625Z" fill="currentColor"/>
</symbol><symbol id="icon-prev" viewBox="0 0 492 492" xml:space="preserve" xmlns="http://www.w3.org/2000/svg">
	<g>
		<g>
			<path fill="currentColor" d="M198.608,246.104L382.664,62.04c5.068-5.056,7.856-11.816,7.856-19.024c0-7.212-2.788-13.968-7.856-19.032l-16.128-16.12     C361.476,2.792,354.712,0,347.504,0s-13.964,2.792-19.028,7.864L109.328,227.008c-5.084,5.08-7.868,11.868-7.848,19.084     c-0.02,7.248,2.76,14.028,7.848,19.112l218.944,218.932c5.064,5.072,11.82,7.864,19.032,7.864c7.208,0,13.964-2.792,19.032-7.864     l16.124-16.12c10.492-10.492,10.492-27.572,0-38.06L198.608,246.104z"/>
		</g>
	</g>
</symbol><symbol viewBox="0 0 22 12" fill="none" id="icon-ticket" xmlns="http://www.w3.org/2000/svg">
<path d="M0.479167 11.5H20.6042C20.7312 11.5 20.8531 11.4495 20.943 11.3597C21.0328 11.2698 21.0833 11.1479 21.0833 11.0208V7.66667C21.0833 7.53958 21.0328 7.41771 20.943 7.32784C20.8531 7.23798 20.7312 7.1875 20.6042 7.1875H19.6458C19.2646 7.1875 18.899 7.03605 18.6294 6.76647C18.3598 6.49688 18.2083 6.13125 18.2083 5.75C18.2083 5.36875 18.3598 5.00312 18.6294 4.73353C18.899 4.46395 19.2646 4.3125 19.6458 4.3125H20.6042C20.7312 4.3125 20.8531 4.26202 20.943 4.17216C21.0328 4.08229 21.0833 3.96042 21.0833 3.83333V0.479167C21.0833 0.352084 21.0328 0.230205 20.943 0.140344C20.8531 0.0504831 20.7312 0 20.6042 0H0.479167C0.352084 0 0.230206 0.0504831 0.140345 0.140344C0.0504835 0.230205 0 0.352084 0 0.479167V3.83333C0 3.96042 0.0504835 4.08229 0.140345 4.17216C0.230206 4.26202 0.352084 4.3125 0.479167 4.3125H1.4375C1.81875 4.3125 2.18438 4.46395 2.45397 4.73353C2.72355 5.00312 2.875 5.36875 2.875 5.75C2.875 6.13125 2.72355 6.49688 2.45397 6.76647C2.18438 7.03605 1.81875 7.1875 1.4375 7.1875H0.479167C0.352084 7.1875 0.230206 7.23798 0.140345 7.32784C0.0504835 7.41771 0 7.53958 0 7.66667V11.0208C0 11.1479 0.0504835 11.2698 0.140345 11.3597C0.230206 11.4495 0.352084 11.5 0.479167 11.5ZM14.375 2.39583C14.375 2.26875 14.4255 2.14687 14.5153 2.05701C14.6052 1.96715 14.7271 1.91667 14.8542 1.91667C14.9812 1.91667 15.1031 1.96715 15.193 2.05701C15.2828 2.14687 15.3333 2.26875 15.3333 2.39583V3.35417C15.3333 3.48125 15.2828 3.60313 15.193 3.69299C15.1031 3.78285 14.9812 3.83333 14.8542 3.83333C14.7271 3.83333 14.6052 3.78285 14.5153 3.69299C14.4255 3.60313 14.375 3.48125 14.375 3.35417V2.39583ZM14.375 5.27083C14.375 5.14375 14.4255 5.02187 14.5153 4.93201C14.6052 4.84215 14.7271 4.79167 14.8542 4.79167C14.9812 4.79167 15.1031 4.84215 15.193 4.93201C15.2828 5.02187 15.3333 5.14375 15.3333 5.27083V6.22917C15.3333 6.35625 15.2828 6.47813 15.193 6.56799C15.1031 6.65785 14.9812 6.70833 14.8542 6.70833C14.7271 6.70833 14.6052 6.65785 14.5153 6.56799C14.4255 6.47813 14.375 6.35625 14.375 6.22917V5.27083ZM14.375 8.14583C14.375 8.01875 14.4255 7.89687 14.5153 7.80701C14.6052 7.71715 14.7271 7.66667 14.8542 7.66667C14.9812 7.66667 15.1031 7.71715 15.193 7.80701C15.2828 7.89687 15.3333 8.01875 15.3333 8.14583V9.10417C15.3333 9.23125 15.2828 9.35313 15.193 9.44299C15.1031 9.53285 14.9812 9.58333 14.8542 9.58333C14.7271 9.58333 14.6052 9.53285 14.5153 9.44299C14.4255 9.35313 14.375 9.23125 14.375 9.10417V8.14583ZM6.22917 2.875H11.9792C12.1062 2.875 12.2281 2.92548 12.318 3.01534C12.4078 3.10521 12.4583 3.22708 12.4583 3.35417C12.4583 3.48125 12.4078 3.60313 12.318 3.69299C12.2281 3.78285 12.1062 3.83333 11.9792 3.83333H6.22917C6.10208 3.83333 5.98021 3.78285 5.89034 3.69299C5.80048 3.60313 5.75 3.48125 5.75 3.35417C5.75 3.22708 5.80048 3.10521 5.89034 3.01534C5.98021 2.92548 6.10208 2.875 6.22917 2.875ZM6.22917 5.27083H11.9792C12.1062 5.27083 12.2281 5.32132 12.318 5.41118C12.4078 5.50104 12.4583 5.62292 12.4583 5.75C12.4583 5.87708 12.4078 5.99896 12.318 6.08882C12.2281 6.17868 12.1062 6.22917 11.9792 6.22917H6.22917C6.10208 6.22917 5.98021 6.17868 5.89034 6.08882C5.80048 5.99896 5.75 5.87708 5.75 5.75C5.75 5.62292 5.80048 5.50104 5.89034 5.41118C5.98021 5.32132 6.10208 5.27083 6.22917 5.27083ZM6.22917 7.66667H11.9792C12.1062 7.66667 12.2281 7.71715 12.318 7.80701C12.4078 7.89687 12.4583 8.01875 12.4583 8.14583C12.4583 8.27292 12.4078 8.39479 12.318 8.48466C12.2281 8.57452 12.1062 8.625 11.9792 8.625H6.22917C6.10208 8.625 5.98021 8.57452 5.89034 8.48466C5.80048 8.39479 5.75 8.27292 5.75 8.14583C5.75 8.01875 5.80048 7.89687 5.89034 7.80701C5.98021 7.71715 6.10208 7.66667 6.22917 7.66667Z" fill="currentColor"/>
</symbol></svg>